<svg xmlns="http://www.w3.org/2000/svg" xmlns:xlink="http://www.w3.org/1999/xlink" viewBox="0 0 512 512" width="512" height="512" style="width: 100%; height: 100%; transform: translate3d(0,0,0); content-visibility: visible;" preserveAspectRatio="xMidYMid meet"><defs><clipPath id="__lottie_element_2"><rect width="512" height="512" x="0" y="0"></rect></clipPath></defs><g clip-path="url(#__lottie_element_2)"><g style="display: block;" transform="matrix(1,0,0,1,0,0)" opacity="1"><g opacity="1" transform="matrix(1,0,0,1,0,0)"><path fill-rule="evenodd" fill="rgb(253,253,253)" fill-opacity="1" d=" M126.322998046875,46.262298583984375 C128.5,45.5 136.33299255371094,46.64289855957031 140.4709930419922,49.96780014038086 C160.8419952392578,66.97560119628906 176.6750030517578,87.52459716796875 187.97000122070312,111.61499786376953 C192.8209991455078,128.82899475097656 197.5,147 201.44400024414062,163.49200439453125 C202.5,170 202.5,177.5 199.75999450683594,184.04100036621094 C197.54100036621094,187.29200744628906 194.6219940185547,189.76199340820312 191.0019989013672,191.45199584960938 C172.7239990234375,198.4929962158203 154,204 134.4080047607422,204.2530059814453 C127,203.5 122.1780014038086,197.4149932861328 119.2490005493164,190.44200134277344 C113.93599700927734,171.42599487304688 107,153.5 103.0790023803711,135.19500732421875 C101.5,107.5 106.72000122070312,81.05799865722656 117.9010009765625,55.69459915161133 C119.94300079345703,51.81119918823242 124,47 126.322998046875,46.262298583984375 C126.322998046875,46.262298583984375 126.322998046875,46.262298583984375 126.322998046875,46.262298583984375z"></path></g><g opacity="1" transform="matrix(1,0,0,1,0,0)"><path fill-rule="evenodd" fill="rgb(252,252,252)" fill-opacity="1" d=" M439.6099853515625,51.652198791503906 C454.2829895019531,50.25210189819336 462.4800109863281,56.989498138427734 464.2019958496094,71.86419677734375 C465.74798583984375,81.9103012084961 461.92999267578125,88.42330169677734 452.74798583984375,91.40260314941406 C453.9800109863281,91.21859741210938 451.6780090332031,91.56230163574219 452.74798583984375,91.40260314941406 C376.9179992675781,109.125 297.97900390625,128.3260040283203 221.9929962158203,145.63800048828125 C213.5,146.5 210.5,144 208.5189971923828,136.20599365234375 C205.92100524902344,128.62399291992188 203.89999389648438,120.8759994506836 202.4550018310547,112.96199798583984 C202.4550018310547,108.5 205.01300048828125,105.46399688720703 209.19200134277344,103.86699676513672 C286.0889892578125,86.43710327148438 362.8949890136719,69.03179931640625 439.6099853515625,51.652198791503906 C439.6099853515625,51.652198791503906 439.6099853515625,51.652198791503906 439.6099853515625,51.652198791503906z"></path></g><g opacity="1" transform="matrix(1,0,0,1,0,0)"><path fill-rule="evenodd" fill="rgb(253,253,253)" fill-opacity="1" d=" M27.957399368286133,227.4969940185547 C82.34410095214844,227.16600036621094 136.69200134277344,227.5030059814453 191.0019989013672,228.50799560546875 C192.8489990234375,228.54200744628906 194.0030059814453,231 194.0330047607422,232.88699340820312 C194.48300170898438,260.7349853515625 194.48300170898438,288.5830078125 194.0330047607422,316.42999267578125 C193.5,320.5 189.8679962158203,322.3819885253906 185.61199951171875,322.4939880371094 C150.2050018310547,320.885986328125 116.74299621582031,312.239990234375 85.2249984741211,296.55499267578125 C62.4359016418457,284.3710021972656 42,268.5 26.946800231933594,247.70899963378906 C25.196500778198242,244.8820037841797 23.62459945678711,241.96200561523438 22.23069953918457,238.9510040283203 C20,234 23,228 27.957399368286133,227.4969940185547 C27.957399368286133,227.4969940185547 27.957399368286133,227.4969940185547 27.957399368286133,227.4969940185547z"></path></g><g opacity="1" transform="matrix(1,0,0,1,0,0)"><path fill-rule="evenodd" fill="rgb(253,253,253)" fill-opacity="1" d=" M211.21400451660156,227.4969940185547 C302.39300537109375,227.38499450683594 393.5719909667969,227.4969940185547 484.75,227.83399963378906 C487,227.8419952392578 489.5,230 489.4670104980469,232.21299743652344 C490.25201416015625,243.66000366210938 490.364990234375,255.11399841308594 489.8039855957031,266.5740051269531 C489.5,270 485.8280029296875,271.9360046386719 482.0559997558594,272.3009948730469 C449.77801513671875,275.2489929199219 422.0419921875,287.93701171875 398.8489990234375,310.36700439453125 C391.1109924316406,319.32598876953125 385.27099609375,329.4320068359375 381.3320007324219,340.68499755859375 C377.3710021972656,356.17999267578125 379.3919982910156,370.77801513671875 387.39599609375,384.4779968261719 C395.1709899902344,395.6210021972656 404.49200439453125,405.1659851074219 415.3559875488281,413.11199951171875 C419,415.5 418.8550109863281,416.5 419.0610046386719,418.8380126953125 C420.14801025390625,431.1549987792969 420.37298583984375,443.5069885253906 419.7349853515625,455.8940124511719 C419.7349853515625,461 414,465.62701416015625 408.6180114746094,465.6629943847656 C341.2449951171875,466.11199951171875 273.8710021972656,466.11199951171875 206.4980010986328,465.6629943847656 C202,465.5 197.49099731445312,460.5 197.40199279785156,455.8940124511719 C197.2899932861328,450.05499267578125 197.17799377441406,444.21600341796875 197.06500244140625,438.37701416015625 C196.97900390625,431.8169860839844 196.74000549316406,425.4649963378906 197.5,419 C197.67599487304688,417.5 199.83099365234375,415.2300109863281 201.10800170898438,414.4590148925781 C212.92799377441406,407.31500244140625 225,400 232.0989990234375,387.84600830078125 C241.5,370 240.3249969482422,352.47698974609375 222.66700744628906,339.0010070800781 C218.24899291992188,336.0050048828125 213.5330047607422,333.5350036621094 208.5189971923828,331.5899963378906 C206.5,331 205.5,329 205.48699951171875,326.5360107421875 C205.03799438476562,295.32000732421875 205.03799438476562,264.1029968261719 205.48699951171875,232.88699340820312 C205.5,230 208.5,227.5 211.21400451660156,227.4969940185547 C211.21400451660156,227.4969940185547 211.21400451660156,227.4969940185547 211.21400451660156,227.4969940185547z"></path></g></g></g></svg>